<?xml version="1.0" standalone="no"?><!DOCTYPE svg PUBLIC "-//W3C//DTD SVG 1.1//EN" "http://www.w3.org/Graphics/SVG/1.1/DTD/svg11.dtd"><svg t="1614843315903" class="icon" viewBox="0 0 1024 1024" version="1.1" xmlns="http://www.w3.org/2000/svg" p-id="3573" xmlns:xlink="http://www.w3.org/1999/xlink" width="200" height="200"><defs><style type="text/css"></style></defs><path d="M723.0648195 303.84452613l-1.4821197-1.48211969a32.9359927 32.9359927 0 0 0-46.54953591 0L512 465.34067659l-163.03316389-163.03316391a32.88109895 32.88109895 0 0 0-46.60442967 0 32.82620648 32.82620648 0 0 0 0 46.65932343L465.45046407 512 302.30751268 675.03316389a32.82620648 32.82620648 0 0 0 0 46.49464348l1.53701345 1.48211965a32.9359927 32.9359927 0 0 0 46.60442964 0l163.0331639-163.03316389 163.03316389 163.03316389a32.9359927 32.9359927 0 1 0 46.54953594-46.60442969l-163.03316388-163.03316386 163.03316388-163.0331639a32.9359927 32.9359927 0 0 0 0-46.54953724m138.22138312-141.18562119a493.93010436 493.93010436 0 0 0-698.62729903 0 493.98499682 493.98499682 0 0 0 0 698.62729774 493.8752106 493.8752106 0 0 0 698.62729903 0 493.8752106 493.8752106 0 0 0 0-698.62729774m-46.5495359 652.07776182a428.11301142 428.11301142 0 0 1-605.47333344 0 428.00322521 428.00322521 0 0 1 0-605.47333212 428.05811897 428.05811897 0 0 1 605.47333344 0 428.05811897 428.05811897 0 0 1 0 605.47333212" p-id="3574"></path></svg>