<?xml version="1.0" standalone="no"?><!DOCTYPE svg PUBLIC "-//W3C//DTD SVG 1.1//EN" "http://www.w3.org/Graphics/SVG/1.1/DTD/svg11.dtd"><svg t="1614843285877" class="icon" viewBox="0 0 1024 1024" version="1.1" xmlns="http://www.w3.org/2000/svg" p-id="3139" xmlns:xlink="http://www.w3.org/1999/xlink" width="200" height="200"><defs><style type="text/css"></style></defs><path d="M512 10.80312389a501.19687611 501.19687611 0 1 1 0 1002.39375222 501.19687611 501.19687611 0 0 1 0-1002.39375222z m0 77.10721174a424.08966437 424.08966437 0 1 0 0 848.17932874 424.08966437 424.08966437 0 0 0 0-848.17932874z" p-id="3140"></path><path d="M513.15660823 252.91976865a58.29305204 58.29305204 0 1 1 0 116.50899687 58.29305204 58.29305204 0 0 1 0-116.50899687zM563.89315345 762.90686687h-41.02103658c-21.51291207 0-43.71978904-18.65994522-43.71978906-35.70063901V490.94973122h-14.65037023a38.86203472 38.86203472 0 1 1 0-77.7240694s47.42093521-0.15421444 48.65465065 0c19.73944617 1.46503703 34.00428038 10.02393752 34.00428028 26.13934475v245.89489812h16.73226494a38.86203472 38.86203472 0 1 1 0 77.64696218z" p-id="3141"></path></svg>