<?xml version="1.0" standalone="no"?><!DOCTYPE svg PUBLIC "-//W3C//DTD SVG 1.1//EN" "http://www.w3.org/Graphics/SVG/1.1/DTD/svg11.dtd"><svg t="1661321150962" class="icon" viewBox="0 0 1024 1024" version="1.1" xmlns="http://www.w3.org/2000/svg" p-id="3727" xmlns:xlink="http://www.w3.org/1999/xlink" width="200" height="200"><defs><style type="text/css">@font-face { font-family: feedback-iconfont; src: url("//at.alicdn.com/t/font_1031158_u69w8yhxdu.woff2?t=1630033759944") format("woff2"), url("//at.alicdn.com/t/font_1031158_u69w8yhxdu.woff?t=1630033759944") format("woff"), url("//at.alicdn.com/t/font_1031158_u69w8yhxdu.ttf?t=1630033759944") format("truetype"); }
</style></defs><path d="M696.2 785.6H329.8c-10.1 0-18.3-8.2-18.3-18.3V257.2c0-10.1 8.2-18.3 18.3-18.3h366.5c10.1 0 18.3 8.2 18.3 18.3v510.1c0 10.1-8.2 18.3-18.4 18.3zM348.1 749h329.8V275.5H348.1V749z" fill="" p-id="3728"></path><path d="M577.4 727.4H448.6c-10.1 0-18.3-8.2-18.3-18.3s8.2-18.3 18.3-18.3h128.8c10.1 0 18.3 8.2 18.3 18.3s-8.2 18.3-18.3 18.3z" fill="" p-id="3729"></path><path d="M513 976.9c-62.7 0-123.6-12.3-180.9-36.5-55.3-23.4-105-56.9-147.7-99.6-42.7-42.7-76.2-92.4-99.6-147.7-24.2-57.3-36.5-118.2-36.5-180.9s12.3-123.6 36.5-180.9c23.4-55.3 56.9-105 99.6-147.7s92.4-76.2 147.7-99.6C389.4 59.9 450.3 47.6 513 47.6s123.6 12.3 180.9 36.5c55.3 23.4 105 56.9 147.7 99.6 42.7 42.7 76.2 92.4 99.6 147.7 24.2 57.3 36.5 118.2 36.5 180.9s-12.3 123.6-36.5 180.9c-23.4 55.3-56.9 105-99.6 147.7-42.7 42.7-92.4 76.2-147.7 99.6-57.3 24.1-118.2 36.4-180.9 36.4z m0-892.7c-236 0-428 192-428 428s192 428 428 428 428-192 428-428-192-428-428-428z" fill="" p-id="3730"></path></svg>