<?xml version="1.0" standalone="no"?><!DOCTYPE svg PUBLIC "-//W3C//DTD SVG 1.1//EN" "http://www.w3.org/Graphics/SVG/1.1/DTD/svg11.dtd"><svg t="1614843296253" class="icon" viewBox="0 0 1024 1024" version="1.1" xmlns="http://www.w3.org/2000/svg" p-id="3284" xmlns:xlink="http://www.w3.org/1999/xlink" width="200" height="200"><defs><style type="text/css"></style></defs><path d="M512 10.80312389a501.19687611 501.19687611 0 0 1 501.19687611 501.27398332A501.19687611 501.19687611 0 1 1 512 10.80312389z m0 77.10721174a424.08966437 424.08966437 0 0 0-424.08966437 424.16677158A424.08966437 424.08966437 0 1 0 512 87.91033563z" p-id="3285"></path><path d="M476.91621866 714.09800189a39.47889241 39.47889241 0 0 1-61.06891168 5.78304088l-158.99507052-161.46250134a40.71260775 40.71260775 0 0 1 0-56.98222944 39.47889241 39.47889241 0 0 1 56.36537179 0l130.31118779 132.31597528 296.16880013-302.64580594a39.47889241 39.47889241 0 0 1 56.44247895 0c15.42144232 15.80697841 15.42144232 41.25235823 0 57.0593367l-319.22385646 325.93218386z" p-id="3286"></path></svg>