<?xml version="1.0" standalone="no"?><!DOCTYPE svg PUBLIC "-//W3C//DTD SVG 1.1//EN" "http://www.w3.org/Graphics/SVG/1.1/DTD/svg11.dtd"><svg t="1614843308163" class="icon" viewBox="0 0 1024 1024" version="1.1" xmlns="http://www.w3.org/2000/svg" p-id="3429" xmlns:xlink="http://www.w3.org/1999/xlink" width="200" height="200"><defs><style type="text/css"></style></defs><path d="M512 11.45471845a500.54528155 500.54528155 0 1 1 0 1001.0905631 500.54528155 500.54528155 0 0 1 0-1001.0905631z m0 83.42421358a417.12106797 417.12106797 0 1 0 0 834.24213594 417.12106797 417.12106797 0 0 0 0-834.24213594z m-42.12922787 181.8647856c0-22.35768922 17.85278168-40.4607436 39.87677411-40.46074355s39.87677407 18.10305434 39.8767741 40.46074355v305.33262178a40.21047097 40.21047097 0 0 1-39.8767741 40.54416784 40.21047097 40.21047097 0 0 1-39.87677411-40.46074361V276.74371763z m39.87677411 511.97439884a57.22901048 57.22901048 0 0 1-56.72846524-57.64613159c0-31.86804956 25.36096092-57.72955577 56.72846524-57.72955582 31.3675043 0 56.72846524 25.86150621 56.72846525 57.72955582a57.22901048 57.22901048 0 0 1-56.72846525 57.64613159z" p-id="3430"></path></svg>